<svg width="199" height="191" viewBox="0 0 199 191" fill="none" xmlns="http://www.w3.org/2000/svg">
<path d="M99.2332 191.206C72.7271 191.206 47.8074 181.262 29.0647 163.205C10.3219 145.148 0 121.14 0 95.603C0 70.0665 10.3219 46.0583 29.0647 28.0015C47.8074 9.9444 72.7268 0 99.2332 0C125.74 0 150.659 9.9444 169.401 28.0015C188.144 46.0583 198.466 70.0665 198.466 95.603C198.466 121.14 188.144 145.148 169.401 163.205C150.659 181.262 125.74 191.206 99.2332 191.206Z" fill="url(#paint0_linear_180_3069)"/>
<path opacity="0.5" d="M169.403 28.0015C150.66 9.9444 125.741 0 99.2346 0C72.7286 0 47.8089 9.9444 29.0661 28.0015C10.3234 46.0583 0.00146484 70.0665 0.00146484 95.603C0.00146484 121.14 10.3234 145.148 29.0661 163.205C47.8089 181.262 72.7282 191.206 99.2346 191.206C125.741 191.206 150.66 181.262 169.403 163.205C188.145 145.148 198.467 121.14 198.467 95.603C198.467 70.0669 188.145 46.0587 169.403 28.0015ZM166.035 156.543C147.888 173.406 123.761 182.692 98.0979 182.692C72.4349 182.692 48.3081 173.406 30.1613 156.543C12.0144 139.681 2.02083 117.261 2.02083 93.4139C2.02083 69.5666 12.0144 47.1468 30.1613 30.2845C48.3078 13.4219 72.4349 4.13537 98.0979 4.13537C123.761 4.13537 147.888 13.4219 166.035 30.2845C184.181 47.1468 194.175 69.5666 194.175 93.4139C194.175 117.261 184.181 139.681 166.035 156.543Z" fill="url(#paint1_linear_180_3069)"/>
<path opacity="0.3" d="M99.5165 173.204C79.458 173.204 60.6002 165.357 46.417 151.109C32.2334 136.861 24.4224 117.917 24.4224 97.7673C24.4224 77.6175 32.2334 58.6736 46.417 44.4255C60.6002 30.1773 78.9041 23.8391 98.9625 23.8391C119.021 23.8391 138.433 30.177 152.616 44.4255C166.8 58.6736 174.611 77.6175 174.611 97.7673C174.611 117.917 168.479 137.331 154.295 151.579C140.112 165.827 119.575 173.204 99.5165 173.204Z" fill="url(#paint2_linear_180_3069)"/>
<path opacity="0.5" d="M99.5159 170.771C80.1111 170.771 61.8676 163.18 48.146 149.396C34.4243 135.612 26.8677 117.285 26.8677 97.7918C26.8677 78.2983 34.4243 59.9712 48.146 46.1873C61.8672 32.4032 79.5749 26.2715 98.9797 26.2715C118.385 26.2715 137.164 32.4032 150.885 46.1873C164.607 59.9712 172.164 78.2983 172.164 97.7918C172.164 117.285 166.232 136.067 152.51 149.85C138.789 163.634 118.921 170.771 99.5159 170.771Z" fill="url(#paint3_linear_180_3069)"/>
<path d="M99.2335 162.988C80.5512 162.988 62.9867 155.978 49.7762 143.251C36.5657 130.524 29.2905 113.602 29.2905 95.603C29.2905 77.6041 36.5657 60.6821 49.7762 47.9552C62.9867 35.228 80.5508 28.2189 99.2335 28.2189C117.916 28.2189 135.48 35.228 148.691 47.9552C161.901 60.6825 169.176 77.6041 169.176 95.603C169.176 113.602 161.901 130.524 148.691 143.251C135.48 155.978 117.916 162.988 99.2335 162.988Z" fill="url(#paint4_linear_180_3069)"/>
<path opacity="0.6" d="M73.3651 57.7748C66.295 60.086 63.8961 92.9267 68.9465 121.875C63.6024 119.933 58.3577 117.132 54.0242 113.707C43.6753 105.528 37.9756 94.2607 37.9756 81.9796C37.9756 69.6984 43.6749 57.8742 54.0242 48.6852C64.3731 39.4959 78.1329 34.0414 92.7684 33.3268C107.404 32.6121 121.164 36.7227 131.513 44.9011C141.861 53.0795 147.561 64.347 147.561 76.6282C147.561 88.9089 141.667 102.171 126.769 111.658C126.769 111.658 139.899 101.036 135.102 92.4406C125.449 75.147 87.5471 55.6261 73.3651 57.7748Z" fill="url(#paint5_linear_180_3069)"/>
<path opacity="0.3" d="M88.2688 117.253C67.9202 117.253 48.7844 110.95 34.3398 99.5006C36.4974 110.966 42.5535 121.528 51.9251 129.915C63.836 140.575 79.6102 147.418 96.4552 147.418C113.3 147.418 129.199 140.575 141.11 129.915C153.021 119.256 159.58 105.083 159.58 90.0079C159.58 86.7107 159.266 83.4568 158.651 80.2734C149.986 109.956 108.738 117.253 88.2688 117.253Z" fill="url(#paint6_linear_180_3069)"/>
<path opacity="0.4" d="M148.691 47.9552C135.48 35.228 117.916 28.2189 99.2335 28.2189C80.5512 28.2189 62.9867 35.228 49.7762 47.9552C36.5657 60.6825 29.2905 77.6041 29.2905 95.603C29.2905 113.602 36.5657 130.524 49.7762 143.251C62.9867 155.978 80.5508 162.988 99.2335 162.988C117.916 162.988 135.48 155.978 148.691 143.251C161.901 130.524 169.176 113.602 169.176 95.603C169.176 77.6045 161.901 60.6825 148.691 47.9552ZM141.906 131.363C129.912 142.436 113.965 148.535 97.002 148.535C80.0396 148.535 64.0922 142.436 52.0978 131.363C40.1033 120.29 33.0779 106.155 33.0779 90.4946C33.0779 74.8346 39.6833 60.1121 51.6778 49.0392C63.6723 37.966 79.6193 31.8677 96.5821 31.8677C113.544 31.8677 129.492 37.966 141.486 49.0392C153.481 60.1121 160.086 74.835 160.086 90.4946C160.086 106.154 153.901 120.29 141.906 131.363Z" fill="url(#paint7_linear_180_3069)"/>
<path d="M144.558 134.525C132.563 145.598 116.53 152.77 97.5928 152.405C80.6338 152.078 52.0137 144.661 34.3384 120.334C34.8573 124.29 43.9336 139.147 51.4671 144.82C64.4674 156.551 81.3363 162.987 99.2337 162.987C117.916 162.987 135.48 155.978 148.691 143.251C161.901 130.523 169.177 113.601 169.177 95.6023C169.177 93.477 169.072 91.3676 168.871 89.2775C168.838 84.6552 165.639 72.8164 163.535 68.8431C169.174 104.928 156.552 123.452 144.558 134.525Z" fill="url(#paint8_linear_180_3069)"/>
<path d="M80.8003 38.9218C76.1203 37.7945 67.4177 43.3005 67.1652 46.4631C66.8338 50.6148 72.7202 49.869 79.0327 46.7064C84.0672 44.1842 83.8305 39.6517 80.8003 38.9218Z" fill="#E5FFFF"/>
<path d="M58.7683 51.9932C55.3902 52.2342 52.895 54.7846 53.4493 56.9466C54.1769 59.7851 57.3499 59.3379 59.7661 57.0349C62.5984 54.3355 60.9555 51.837 58.7683 51.9932Z" fill="#E5FFFF"/>
<path opacity="0.2" d="M73.0849 142.093C60.4172 138.17 56.9751 53.6084 70.8734 52.287C87.6811 50.689 138.546 77.8547 139.431 95.752C140.214 111.613 85.4693 145.929 73.0849 142.093Z" fill="url(#paint9_linear_180_3069)"/>
<path opacity="0.3" d="M75.423 138.299C63.8284 134.708 60.6778 57.3109 73.399 56.1011C88.7828 54.6385 135.338 79.5026 136.148 95.8835C136.865 110.401 86.7585 141.809 75.423 138.299Z" fill="url(#paint10_linear_180_3069)"/>
<path opacity="0.4" d="M76.6003 134.602C65.8407 131.27 62.9167 59.4445 74.7218 58.3223C88.9982 56.965 132.202 80.039 132.954 95.241C133.62 108.713 87.1197 137.86 76.6003 134.602Z" fill="url(#paint11_linear_180_3069)"/>
<path d="M76.8814 131.851C66.6287 128.676 63.8426 60.2357 75.0915 59.1665C88.695 57.8733 129.863 79.8597 130.579 94.3451C131.213 107.182 86.905 134.955 76.8814 131.851Z" fill="#FFBD11"/>
<path d="M130.579 94.3451C129.863 79.86 88.695 57.8733 75.0915 59.1665C63.8426 60.236 66.6287 128.676 76.8814 131.851C86.905 134.956 131.213 107.182 130.579 94.3451ZM77.786 130.267C73.7881 129.029 70.7132 115.98 69.5796 100.71C68.3705 84.4245 70.3533 64.0558 73.872 63.491C90.0257 60.8973 126.881 86.5487 127.15 95.602C127.292 100.41 116.811 109.629 106.899 116.7C95.4701 124.853 82.1115 131.606 77.786 130.267Z" fill="url(#paint12_linear_180_3069)"/>
<defs>
<linearGradient id="paint0_linear_180_3069" x1="99.2333" y1="73.9526" x2="99.2333" y2="191.819" gradientUnits="userSpaceOnUse">
<stop stop-color="#DEA331"/>
<stop offset="1" stop-color="#D89A4F"/>
</linearGradient>
<linearGradient id="paint1_linear_180_3069" x1="56.0142" y1="-59.8497" x2="109.002" y2="145.48" gradientUnits="userSpaceOnUse">
<stop stop-color="white"/>
<stop offset="1" stop-color="#2D1900"/>
</linearGradient>
<linearGradient id="paint2_linear_180_3069" x1="127.484" y1="132.49" x2="177.333" y2="199.167" gradientUnits="userSpaceOnUse">
<stop stop-color="#BCB0A9"/>
<stop offset="1" stop-color="white"/>
</linearGradient>
<linearGradient id="paint3_linear_180_3069" x1="120.315" y1="128.234" x2="170.145" y2="206.812" gradientUnits="userSpaceOnUse">
<stop stop-color="#211300"/>
<stop offset="1" stop-color="white"/>
</linearGradient>
<linearGradient id="paint4_linear_180_3069" x1="96.3719" y1="79.4546" x2="110.702" y2="166.572" gradientUnits="userSpaceOnUse">
<stop stop-color="#0096FB"/>
<stop offset="1" stop-color="#5EC6DE"/>
</linearGradient>
<linearGradient id="paint5_linear_180_3069" x1="84.0446" y1="42.6296" x2="93.6127" y2="85.9668" gradientUnits="userSpaceOnUse">
<stop stop-color="white"/>
<stop offset="1" stop-color="#35B5FF" stop-opacity="0"/>
</linearGradient>
<linearGradient id="paint6_linear_180_3069" x1="103.476" y1="136.791" x2="98.3121" y2="99.2743" gradientUnits="userSpaceOnUse">
<stop stop-color="white"/>
<stop offset="1" stop-color="#0072B5"/>
</linearGradient>
<linearGradient id="paint7_linear_180_3069" x1="49.4786" y1="-63.0782" x2="90.505" y2="77.8897" gradientUnits="userSpaceOnUse">
<stop stop-color="white"/>
<stop offset="1" stop-color="#0072B5"/>
</linearGradient>
<linearGradient id="paint8_linear_180_3069" x1="91.0234" y1="78.8096" x2="99.9028" y2="125.395" gradientUnits="userSpaceOnUse">
<stop stop-color="white"/>
<stop offset="1" stop-color="#35B5FF" stop-opacity="0"/>
</linearGradient>
<linearGradient id="paint9_linear_180_3069" x1="75.1528" y1="34.884" x2="97.76" y2="103.098" gradientUnits="userSpaceOnUse">
<stop stop-color="white"/>
<stop offset="1" stop-color="#66C9DF"/>
</linearGradient>
<linearGradient id="paint10_linear_180_3069" x1="77.316" y1="40.1727" x2="98.0079" y2="102.607" gradientUnits="userSpaceOnUse">
<stop stop-color="white"/>
<stop offset="1" stop-color="#0072B5"/>
</linearGradient>
<linearGradient id="paint11_linear_180_3069" x1="78.357" y1="43.5402" x2="97.5593" y2="101.48" gradientUnits="userSpaceOnUse">
<stop stop-color="white"/>
<stop offset="1" stop-color="#51C1D9"/>
</linearGradient>
<linearGradient id="paint12_linear_180_3069" x1="63.889" y1="158.703" x2="100.188" y2="75.2208" gradientUnits="userSpaceOnUse">
<stop stop-color="white"/>
<stop offset="1" stop-color="#BD8731"/>
</linearGradient>
</defs>
</svg>
