<svg width="1440" height="214" viewBox="0 0 1440 214" fill="none" xmlns="http://www.w3.org/2000/svg">
<g filter="url(#filter0_di_5_736)" style="mix-blend-mode:multiply">
<path d="M-2.18182 34.9747C-2.18182 23.4805 173.717 34.9747 185.933 34.9747L1232.45 73.4747L1415.89 15.1412C1417.93 14.4927 1420.07 14.0906 1422.19 14.3816C1432.88 15.8487 1441.09 24.5097 1441.09 34.9747V165.35C1441.09 174.277 1427.75 181.891 1421.79 184.847C1419.94 185.765 1417.93 186.269 1415.87 186.478L1232.45 205.163L227.913 152.163L21.605 185.89C20.495 186.071 19.369 186.183 18.247 186.103C6.82069 185.29 -2.18182 176.31 -2.18182 165.35V34.9747Z" fill="#824D1F"/>
</g>
<defs>
<filter id="filter0_di_5_736" x="-13.61" y="-3.50475e-05" width="1466.13" height="216.591" filterUnits="userSpaceOnUse" color-interpolation-filters="sRGB">
<feFlood flood-opacity="0" result="BackgroundImageFix"/>
<feColorMatrix in="SourceAlpha" type="matrix" values="0 0 0 0 0 0 0 0 0 0 0 0 0 0 0 0 0 0 127 0" result="hardAlpha"/>
<feOffset dy="-2.85704"/>
<feGaussianBlur stdDeviation="5.71408"/>
<feComposite in2="hardAlpha" operator="out"/>
<feColorMatrix type="matrix" values="0 0 0 0 1 0 0 0 0 0.795237 0 0 0 0 0.561223 0 0 0 1 0"/>
<feBlend mode="normal" in2="BackgroundImageFix" result="effect1_dropShadow_5_736"/>
<feBlend mode="normal" in="SourceGraphic" in2="effect1_dropShadow_5_736" result="shape"/>
<feColorMatrix in="SourceAlpha" type="matrix" values="0 0 0 0 0 0 0 0 0 0 0 0 0 0 0 0 0 0 127 0" result="hardAlpha"/>
<feOffset dy="11.4282"/>
<feGaussianBlur stdDeviation="5.71408"/>
<feComposite in2="hardAlpha" operator="arithmetic" k2="-1" k3="1"/>
<feColorMatrix type="matrix" values="0 0 0 0 0 0 0 0 0 0 0 0 0 0 0 0 0 0 0.25 0"/>
<feBlend mode="normal" in2="shape" result="effect2_innerShadow_5_736"/>
</filter>
</defs>
</svg>
